<?xml version="1.0" encoding="utf-8"?>
<!-- Generator: Adobe Illustrator 16.0.0, SVG Export Plug-In . SVG Version: 6.00 Build 0)  -->
<!DOCTYPE svg PUBLIC "-//W3C//DTD SVG 1.1//EN" "http://www.w3.org/Graphics/SVG/1.1/DTD/svg11.dtd">
<svg version="1.1" id="_x31_" xmlns="http://www.w3.org/2000/svg" xmlns:xlink="http://www.w3.org/1999/xlink" x="0px" y="0px"
	 width="112.037px" height="112.037px" viewBox="0 0 112.037 112.037" enable-background="new 0 0 112.037 112.037"
	 xml:space="preserve">
<g>
	<circle id="XMLID_30_" fill="#FFFFFF" cx="56.019" cy="56.018" r="56.019"/>
	<g>
		<path id="XMLID_27_" fill="#FF748C" d="M79.837,54.965c-0.405,0-0.801,0-1.212,0c0-0.083,0-0.162,0-0.239c0-0.316,0-0.581,0-0.841
			c0.003-1.54,0.022-3.078-0.015-4.62c-0.006-0.25-0.266-0.706-0.421-0.709c-1.406-0.055-2.814-0.034-4.302-0.034
			c0,1.845,0,3.596,0,5.376c0,0.353,0,0.702,0,1.052c-2.154,0-4.229,0-6.451,0c0,0.481-0.013,0.81,0.001,1.131
			c0.048,1.165,0.103,2.33,0.155,3.493c1.137,0.041,2.274,0.093,3.413,0.118c0.95,0.017,1.9,0.001,2.954,0.001
			c0,2.217,0,4.28,0,6.343c1.581,0,3.052,0,4.65,0c0-2.103,0-4.17,0-6.358c2.188,0,4.255,0,6.359,0c0-1.226,0-2.381,0-3.563
			c0-0.381,0-0.761,0-1.15C83.259,54.965,81.567,54.965,79.837,54.965z"/>
		<path id="XMLID_26_" fill="#FF748C" d="M61.577,54.425c-4.019,0.053-8.035,0.023-12.052,0.023c-1.147,0-2.298-0.021-3.443,0.024
			c-0.219,0.007-0.609,0.269-0.609,0.419c-0.041,2.314-0.029,4.63-0.029,7.07c3.314,0,6.523,0,9.841,0
			c-0.131,0.479-0.212,0.823-0.324,1.158c-1.511,4.475-6.133,6.692-11.086,5.88c-6.152-1.009-9.981-6.714-8.889-12.877
			c0.155-0.872,0.429-1.697,0.781-2.477c2.032-4.473,7.065-7.189,12.045-6.101c1.783,0.389,3.306,1.253,4.621,2.399
			c1.789-1.804,3.527-3.557,5.38-5.427c-0.12-0.094-0.292-0.216-0.451-0.349c-4.342-3.667-9.33-5.015-14.918-4.099
			c-8.032,1.313-13.809,7.638-15.103,15.028c-0.551,3.158-0.291,6.511,0.97,9.75c3.057,7.849,10.95,12.631,19.382,11.705
			c4.116-0.455,7.793-1.94,10.668-5.005c4.237-4.511,5.325-9.971,4.651-15.948C62.9,54.601,62.496,54.413,61.577,54.425z"/>
	</g>
</g>
</svg>
