<?xml version="1.0" encoding="utf-8"?>
<!-- Generator: Adobe Illustrator 16.0.0, SVG Export Plug-In . SVG Version: 6.00 Build 0)  -->
<!DOCTYPE svg PUBLIC "-//W3C//DTD SVG 1.1//EN" "http://www.w3.org/Graphics/SVG/1.1/DTD/svg11.dtd">
<svg version="1.1" id="_x31_" xmlns="http://www.w3.org/2000/svg" xmlns:xlink="http://www.w3.org/1999/xlink" x="0px" y="0px"
	 width="112.39px" height="112.389px" viewBox="0 0 112.39 112.389" enable-background="new 0 0 112.39 112.389"
	 xml:space="preserve">
<g>
	<circle id="XMLID_115_" fill="#FFFFFF" cx="56.195" cy="56.193" r="56.019"/>
	<path fill="#FF748C" d="M76.546,23.017H35.839c-7.072,0-12.822,5.75-12.822,12.821v13.548v4.987v22.178
		c0,7.07,5.75,12.822,12.822,12.822h40.708c7.072,0,12.827-5.752,12.827-12.822V54.38v-4.994V35.838
		C89.374,28.767,83.619,23.017,76.546,23.017z M80.228,30.667l1.463-0.009v1.465v9.781l-11.205,0.037l-0.04-11.246L80.228,30.667z
		 M46.726,49.386c2.126-2.941,5.572-4.868,9.47-4.868c3.897,0,7.343,1.927,9.469,4.868c0.256,0.355,0.485,0.729,0.702,1.113
		c0.951,1.688,1.51,3.627,1.51,5.694c0,6.438-5.245,11.677-11.681,11.677c-6.441,0-11.681-5.239-11.681-11.677
		c0-2.068,0.557-4.008,1.509-5.695C46.241,50.115,46.47,49.741,46.726,49.386z M82.91,76.551c0,3.508-2.855,6.359-6.363,6.359
		H35.839c-3.507,0-6.358-2.852-6.358-6.359V52.826v-3.44h9.905c-0.248,0.607-0.459,1.233-0.64,1.872
		c-0.448,1.569-0.694,3.224-0.694,4.936c0,10.005,8.14,18.145,18.144,18.145s18.144-8.14,18.144-18.145
		c0-1.712-0.248-3.366-0.697-4.937c-0.184-0.638-0.395-1.264-0.643-1.871h9.91v3.442V76.551z"/>
</g>
</svg>
