<?xml version="1.0" encoding="utf-8"?>
<!-- Generator: Adobe Illustrator 16.0.0, SVG Export Plug-In . SVG Version: 6.00 Build 0)  -->
<!DOCTYPE svg PUBLIC "-//W3C//DTD SVG 1.1//EN" "http://www.w3.org/Graphics/SVG/1.1/DTD/svg11.dtd">
<svg version="1.1" id="_x31_" xmlns="http://www.w3.org/2000/svg" xmlns:xlink="http://www.w3.org/1999/xlink" x="0px" y="0px"
	 width="112.037px" height="112.037px" viewBox="0 0 112.037 112.037" enable-background="new 0 0 112.037 112.037"
	 xml:space="preserve">
<g>
	<circle id="XMLID_49_" fill="#FFFFFF" cx="56.019" cy="56.019" r="56.019"/>
	<path id="XMLID_47_" fill="#FF748C" d="M89.198,38.929c-2.439,1.066-5.062,1.783-7.817,2.107c2.813-1.658,4.968-4.283,5.988-7.416
		c-2.63,1.539-5.548,2.654-8.649,3.256c-2.479-2.605-6.019-4.232-9.934-4.232c-7.518,0-13.612,6.002-13.612,13.401
		c0,1.052,0.121,2.069,0.349,3.054C44.21,48.54,34.177,43.202,27.464,35.096c-1.17,1.979-1.846,4.282-1.846,6.737
		c0,4.647,2.409,8.75,6.058,11.153c-2.229-0.069-4.331-0.673-6.167-1.675c0,0.055,0,0.112,0,0.166c0,1.717,0.335,3.351,0.932,4.857
		c1.663,4.203,5.406,7.378,9.991,8.289c-1.146,0.302-2.345,0.47-3.591,0.47c-0.874,0-1.727-0.085-2.561-0.244
		c1.736,5.323,6.763,9.2,12.718,9.307c-4.661,3.598-10.527,5.739-16.909,5.739c-1.101,0-2.182-0.063-3.251-0.188
		c6.03,3.802,13.189,6.021,20.871,6.021c21.283,0,34.361-14.744,37.812-30.04c0.61-2.703,0.926-5.426,0.926-8.09
		c0-0.578-0.011-1.159-0.036-1.733C85.067,43.977,87.377,41.616,89.198,38.929z"/>
</g>
</svg>
