<?xml version="1.0" encoding="utf-8"?>
<!-- Generator: Adobe Illustrator 16.0.0, SVG Export Plug-In . SVG Version: 6.00 Build 0)  -->
<!DOCTYPE svg PUBLIC "-//W3C//DTD SVG 1.1//EN" "http://www.w3.org/Graphics/SVG/1.1/DTD/svg11.dtd">
<svg version="1.1" id="_x31_" xmlns="http://www.w3.org/2000/svg" xmlns:xlink="http://www.w3.org/1999/xlink" x="0px" y="0px"
	 width="112.037px" height="112.037px" viewBox="0 0 112.037 112.037" enable-background="new 0 0 112.037 112.037"
	 xml:space="preserve">
<g>
	<circle id="XMLID_41_" fill="#FFFFFF" cx="56.019" cy="56.019" r="56.019"/>
	<path fill="#FF748C" d="M88.53,42.342c0,0-0.646-4.771-2.634-6.87c-2.524-2.752-5.353-2.77-6.645-2.929
		c-9.292-0.696-23.217-0.696-23.217-0.696h-0.03c0,0-13.933,0-23.216,0.699c-1.297,0.156-4.121,0.174-6.649,2.928
		c-1.985,2.099-2.634,6.871-2.634,6.871s-0.665,5.596-0.665,11.197v0.674v4.571c0,5.604,0.665,11.202,0.665,11.202
		s0.648,4.769,2.634,6.867c2.528,2.756,5.847,2.668,7.319,2.955c5.31,0.53,22.561,0.697,22.561,0.697s13.94-0.025,23.232-0.721
		c1.292-0.162,4.12-0.174,6.645-2.933c1.987-2.098,2.634-6.866,2.634-6.866s0.667-5.597,0.667-11.201v-4.28v-0.966
		C89.197,47.941,88.53,42.342,88.53,42.342z M67.092,55.47L49.17,65.153l-0.004-14.907v-4.532l8.082,4.399L67.092,55.47z"/>
</g>
</svg>
