<?xml version="1.0" encoding="utf-8"?>
<!-- Generator: Adobe Illustrator 16.0.0, SVG Export Plug-In . SVG Version: 6.00 Build 0)  -->
<!DOCTYPE svg PUBLIC "-//W3C//DTD SVG 1.1//EN" "http://www.w3.org/Graphics/SVG/1.1/DTD/svg11.dtd">
<svg version="1.1" id="Camada_1" xmlns="http://www.w3.org/2000/svg" xmlns:xlink="http://www.w3.org/1999/xlink" x="0px" y="0px"
	 width="640px" height="480px" viewBox="0 0 640 480" enable-background="new 0 0 640 480" xml:space="preserve">
<path d="M358.4,192h-76.8c-5.303,0-9.6,4.297-9.6,9.6v76.8c0,5.303,4.297,9.6,9.6,9.6h76.8c5.303,0,9.6-4.297,9.6-9.6v-76.8
	C368,196.297,363.703,192,358.4,192z M348.8,268.8h-57.6v-57.6h57.6V268.8z"/>
<path d="M489.302,174.989L435.2,130.437V48c0-5.303-4.297-9.6-9.601-9.6H387.2c-5.304,0-9.601,4.297-9.601,9.6v34.998
	l-51.498-42.409c-3.548-2.918-8.663-2.918-12.207,0l-163.2,134.4c-3.125,2.577-4.301,6.835-2.934,10.648
	c1.371,3.821,4.988,6.363,9.039,6.363h28.8v144c0,5.303,4.297,9.6,9.6,9.6h249.6c5.304,0,9.601-4.297,9.601-9.6V192h28.8
	c4.051,0,7.668-2.542,9.035-6.359C493.603,181.828,492.432,177.565,489.302,174.989z M444.8,172.8c-5.303,0-9.6,4.297-9.6,9.6v144
	H204.8v-144c0-5.303-4.297-9.6-9.6-9.6h-11.643L320,60.434l61.098,50.319c2.865,2.357,6.84,2.849,10.199,1.271
	c3.36-1.586,5.503-4.965,5.503-8.682V57.6H416v77.364c0,2.869,1.282,5.587,3.498,7.411l36.941,30.424H444.8z"/>
</svg>
