<?xml version="1.0" encoding="utf-8"?>
<!-- Generator: Adobe Illustrator 16.0.0, SVG Export Plug-In . SVG Version: 6.00 Build 0)  -->
<!DOCTYPE svg PUBLIC "-//W3C//DTD SVG 1.1//EN" "http://www.w3.org/Graphics/SVG/1.1/DTD/svg11.dtd">
<svg version="1.1" id="Camada_1" xmlns="http://www.w3.org/2000/svg" xmlns:xlink="http://www.w3.org/1999/xlink" x="0px" y="0px"
	 width="340px" height="315px" viewBox="149 34.5 340 315" enable-background="new 149 34.5 340 315" xml:space="preserve">
<g display="none">
	<path display="inline" d="M348.518,192h-59.029c-4.076,0-7.379,3.302-7.379,7.378v59.027c0,4.076,3.303,7.378,7.379,7.378h59.029
		c4.07,0,7.377-3.302,7.377-7.378v-59.027C355.895,195.303,352.588,192,348.518,192z M341.134,251.026h-44.268v-44.269h44.268
		V251.026z"/>
	<path display="inline" d="M449.123,178.926l-41.58-34.242V81.323c0-4.074-3.303-7.377-7.379-7.377H370.65
		c-4.077,0-7.379,3.303-7.379,7.377v26.899l-39.58-32.595c-2.728-2.243-6.659-2.243-9.383,0L188.875,178.926
		c-2.402,1.979-3.305,5.254-2.255,8.185c1.054,2.935,3.834,4.89,6.948,4.89h22.136v110.675c0,4.076,3.301,7.377,7.377,7.377h191.839
		c4.077,0,7.378-3.301,7.378-7.377V192h22.135c3.113,0,5.893-1.955,6.943-4.886C452.432,184.183,451.528,180.905,449.123,178.926z
		 M414.921,177.242c-4.076,0-7.378,3.305-7.378,7.381v110.675H230.46V184.623c0-4.076-3.302-7.381-7.378-7.381h-8.948
		l104.868-86.361l46.958,38.675c2.203,1.811,5.26,2.188,7.84,0.976c2.581-1.219,4.229-3.815,4.229-6.672V88.704h14.755v59.46
		c0,2.204,0.988,4.293,2.692,5.697l28.394,23.381H414.921z"/>
</g>
<path display="none" d="M319.92,99.035c-27.896,0-50.594,22.699-50.594,50.595c0,27.897,22.698,50.596,50.594,50.596
	c27.9,0,50.597-22.698,50.597-50.596C370.518,121.734,347.816,99.035,319.92,99.035z M319.92,111.036
	c14.067,0,26.37,7.593,33.113,18.873c-3.222,1.311-6.613,2.147-10.18,2.391c-14.334,0.96-27.246-7.212-32.667-19.971
	C313.307,111.514,316.555,111.036,319.92,111.036z M299.182,117.136c1.057,2.464,2.319,4.806,3.765,7.002
	c-4.84,3.863-10.653,6.281-16.882,6.983C289.192,125.428,293.728,120.626,299.182,117.136z M358.515,149.63
	c0,21.283-17.313,38.597-38.594,38.597c-21.281,0-38.594-17.313-38.594-38.597c0-2.141,0.219-4.229,0.559-6.278
	c0.152,0.004,0.312,0.022,0.461,0.022c1.033,0,2.059-0.037,3.063-0.105c9.417-0.642,18.229-4.203,25.431-10.096
	c8.017,7.044,18.468,11.209,29.708,11.209c1.036,0,2.079-0.037,3.125-0.109c4.775-0.327,9.438-1.49,13.834-3.285
	C358.145,143.771,358.515,146.655,358.515,149.63z M319,81.001c-38.352,0-69.556,31.199-69.556,69.551v82.898
	c0,38.349,31.204,69.549,69.556,69.549c38.353,0,69.556-31.2,69.556-69.552v-82.896C388.556,112.2,357.353,81.001,319,81.001z
	 M261.445,233.447V197.04c11.201,19.139,28.89,32.538,47.177,43.279c-13.484,4.976-28.568,8.091-44.891,9.037
	C262.274,244.3,261.445,238.972,261.445,233.447z M376.553,233.447C376.553,265.185,350.734,291,319,291
	c-21.734,0-40.688-12.118-50.478-29.943c50.214-3.978,89.365-27.313,108.031-61.956V233.447z M322.346,234.354
	c-0.124-0.078-0.229-0.177-0.357-0.247c-43.001-23.6-60.543-47.808-60.543-83.556c0-31.737,25.82-57.553,57.555-57.553
	c31.734,0,57.553,25.815,57.553,57.553C376.553,187.188,355.928,217.277,322.346,234.354z M325.24,164.467
	c-2.936,2.931-7.704,2.931-10.642-0.007c-2.336-2.343-6.14-2.343-8.483,0c-2.343,2.34-2.343,6.142,0,8.484
	c3.807,3.811,8.807,5.712,13.808,5.712c4.998,0,9.996-1.905,13.803-5.707c2.342-2.34,2.342-6.14,0.003-8.482
	C331.384,162.124,327.583,162.124,325.24,164.467z"/>
<g display="none">
	<path display="inline" stroke="#000000" stroke-width="5" stroke-miterlimit="10" d="M339.148,180.104
		c-0.09,0.066-9.233,6.831-19.382,6.831c-12.09,0-18.688-6.205-19.012-6.519c-1.436-1.407-3.731-1.393-5.144,0.029
		c-1.419,1.428-1.41,3.735,0.017,5.154c0.354,0.351,8.86,8.621,24.139,8.621c12.639,0,23.322-7.961,23.771-8.301
		c1.604-1.211,1.926-3.492,0.712-5.097C343.042,179.221,340.76,178.896,339.148,180.104z"/>
	<path display="inline" stroke="#000000" stroke-width="5" stroke-miterlimit="10" d="M302.06,152.914
		c-0.389-0.792-1.346-1.116-2.135-0.729c-0.021,0.008-2.483,1.161-4.497,0.038c-0.767-0.428-1.739-0.151-2.173,0.618
		c-0.428,0.769-0.148,1.739,0.618,2.169c1.203,0.669,2.443,0.891,3.562,0.891c2.121,0,3.792-0.8,3.897-0.854
		C302.124,154.66,302.448,153.702,302.06,152.914z"/>
	<path display="inline" stroke="#000000" stroke-width="5" stroke-miterlimit="10" d="M335.142,155.011
		c1.203,0.669,2.442,0.891,3.562,0.891c2.119,0,3.788-0.804,3.895-0.854c0.789-0.388,1.109-1.335,0.726-2.124
		c-0.382-0.792-1.34-1.119-2.126-0.745c-0.027,0.014-2.483,1.168-4.508,0.043c-0.756-0.424-1.734-0.149-2.17,0.62
		C334.092,153.613,334.37,154.581,335.142,155.011z"/>
	<path display="inline" stroke="#000000" stroke-width="5" stroke-miterlimit="10" d="M365.706,192.554
		c-0.17-0.08-0.347-0.118-0.531-0.171c-0.017-0.003-0.034-0.01-0.05-0.015c5.952-8.961,9.138-20.539,9.138-34.497v-10.152
		c1.219-3.132,6.133-16.531,6.133-29.77c0-21.052-13.71-34.626-31.561-41.532c0.615-1.764,1.025-3.615,1.025-5.486
		c0-11.99-12.366-19.437-32.274-19.437c-18.276,0-30.082,7.628-30.082,19.437c0,1.637,0.214,3.158,0.526,4.607
		c-17.289,5.932-30.508,18.032-30.508,38.845c0,13.182,4.212,29.774,5.004,32.763v10.722c0,13.872,2.983,25.314,8.677,34.18
		c-3.772,1.079-7.455,2.271-11.024,3.584c-0.153,0.046-0.31,0.033-0.456,0.1c-0.072,0.029-0.117,0.094-0.188,0.129
		c-5.712,2.139-11.153,4.552-16.151,7.295c-25.8,14.158-39.438,34.779-39.438,59.636v66.069c0,2.016,1.633,3.646,3.646,3.646
		h222.818c2.013,0,3.646-1.631,3.646-3.646V266.7C434.055,230.687,403.42,204.517,365.706,192.554z M294.795,70.931
		c0-7.267,9.162-12.15,22.793-12.15c11.526,0,24.983,3.183,24.983,12.15c0,1.025-0.244,2.112-0.642,3.203
		c-7.663-2.144-15.813-3.2-23.811-3.2c-7.755,0-15.645,0.81-23.063,2.58C294.906,72.685,294.795,71.836,294.795,70.931z
		 M266.771,132.541c-1.039-5.693-1.958-12.366-1.958-18.158c0-22.643,19.93-36.163,53.311-36.163
		c37.984,0,54.989,19.953,54.989,39.726c0,6.752-1.49,13.731-2.967,18.998c-0.837-1.879-1.752-3.928-2.685-6.002l-0.693-1.557
		c-5.816-13.119-14.617-32.939-47.766-32.939c-30.435,0-40.212,16.255-47.354,28.121c-0.89,1.478-1.742,2.896-2.602,4.222
		C268.182,130.115,267.431,131.364,266.771,132.541z M269.813,157.867V144.59c0.262-1.813,1.299-5.598,5.344-11.836
		c0.901-1.392,1.8-2.88,2.73-4.427c6.935-11.526,14.797-24.592,41.107-24.592c28.409,0,35.447,15.864,41.103,28.61l0.705,1.584
		c2.747,6.118,5.328,11.956,6.17,13.857v10.08c0,31.327-17.186,48.58-48.382,48.58C296.34,206.447,269.813,198.02,269.813,157.867z
		 M276.029,198.221c9.502,10.146,23.83,15.515,42.564,15.515c18.078,0,32.187-5.345,41.691-15.283c0.007,0,0.01,0.001,0.017,0.001
		c-1.675,12.859-15.404,24.05-32.849,36.058c-38.301-0.452-55.775-24.185-61.098-33.36
		C269.505,200.078,272.728,199.1,276.029,198.221z M211.232,325.216v-62.43c0-27.834,19.389-44.315,35.656-53.245
		c3.92-2.15,8.164-4.063,12.563-5.833c2.165,3.87,6.602,10.722,14.01,17.592c8.674,8.043,23.011,17.391,44.145,19.875
		c-0.414,0.275-0.818,0.55-1.236,0.826c-30.997,20.732-66.003,44.147-68.063,83.215H211.232z M426.766,325.216H255.611
		c2.157-35.246,35.38-57.47,64.81-77.155c23.364-15.624,43.754-29.308,46.906-47.377c33.189,11.49,59.438,34.658,59.438,66.02
		V325.216z"/>
	<path display="inline" stroke="#000000" stroke-width="5" stroke-miterlimit="10" d="M318.264,156.369
		c3.324,7.586,10.943,12.518,20.518,12.518c13.091,0,22.594-9.004,22.594-21.411v-8.506c0-1.629-1.083-3.063-2.654-3.506
		c-0.501-0.142-12.343-3.466-19.939-3.466c-5.736,0-16.351,0.033-20.548,7.699c-4.37-7.666-15.371-7.699-20.721-7.699
		c-6.228,0-18.813,2.278-19.344,2.373c-1.73,0.316-2.99,1.825-2.99,3.584v9.521c0,12.405,9.392,21.411,22.334,21.411
		C307.193,168.887,314.901,163.951,318.264,156.369z M325.789,144.973c0-0.869-0.344-1.634-0.854-2.261
		c1.688-2.305,5.537-3.426,13.854-3.426c4.617,0,11.545,1.556,15.296,2.494v5.692c0,8.313-6.293,14.121-15.304,14.121
		c-8.603,0-14.634-5.496-14.982-13.426C324.965,147.564,325.789,146.38,325.789,144.973z M282.464,147.476v-6.445
		c4.041-0.665,11.18-1.743,15.049-1.743c8.625,0,12.537,1.233,14.196,3.658c-0.406,0.589-0.696,1.261-0.696,2.027
		c0,1.306,0.723,2.395,1.753,3.04c-0.274,8.017-6.442,13.584-15.253,13.584C288.654,161.597,282.464,155.792,282.464,147.476z"/>
</g>
<g display="none">
	<path display="inline" d="M462.749,104.501h-46.123l-7.325-14.636c-3.2-6.389-9.627-10.364-16.777-10.364h-28.762l-21.135-7.038
		c-10.852-3.623-22.152-5.462-33.602-5.462H187.75c-10.337,0-18.75,8.413-18.75,18.75v50c0,10.338,8.413,18.75,18.75,18.75h30.199
		l-11,71.524L184,243.252c-0.087,0.062-0.1,0.175-0.175,0.249c-0.875,0.713-1.525,1.627-1.912,2.713
		c-0.075,0.201-0.075,0.387-0.125,0.6c-0.112,0.475-0.287,0.924-0.287,1.438v49.998c0,10.338,8.411,18.75,18.75,18.75h100
		c10.337,0,18.75-8.412,18.75-18.75v-49.998c0-0.15-0.075-0.275-0.087-0.426c-0.038-0.463-0.138-0.899-0.274-1.337
		c-0.088-0.312-0.151-0.612-0.289-0.899c-0.199-0.412-0.474-0.762-0.762-1.126c-0.187-0.239-0.324-0.501-0.537-0.7
		c-0.425-0.412-0.938-0.713-1.474-1c-0.163-0.088-0.29-0.211-0.451-0.273l-39.226-16.813l4.238-27.574
		c0.461,0.088,0.913,0.149,1.363,0.149c2.813,0,5.351-1.888,6.05-4.737l6.249-25c0.838-3.35-1.2-6.737-4.549-7.575
		c-1.188-0.313-2.351-0.137-3.424,0.214l1.025-6.651h22.174c11.438,0,22.738-1.838,33.602-5.462l21.135-7.038h28.762
		c7.15,0,13.577-3.974,16.777-10.374l7.312-14.626h46.137c3.452,0,6.251-2.8,6.251-6.249
		C469,107.301,466.201,104.501,462.749,104.501z M306.5,298.249c0,3.453-2.8,6.252-6.25,6.252h-100
		c-3.451,0-6.251-2.799-6.251-6.252v-43.746h112.5V298.249z M266.536,235.237L282.299,242H206.5l9.999-7.512
		c1.314-0.975,2.176-2.438,2.426-4.049l11.687-75.938h43.6l-11.387,74.038C262.388,231.364,263.913,234.114,266.536,235.237z
		 M338.674,137.188c-9.574,3.2-19.55,4.813-29.649,4.813h-27.537l0,0h-56.25l0,0H187.75c-3.45,0-6.25-2.801-6.25-6.25v-50
		c0-3.449,2.799-6.25,6.25-6.25v-0.012h121.275c10.099,0,20.075,1.625,29.649,4.812l17.826,5.95v41L338.674,137.188z
		 M398.113,126.051c-1.063,2.126-3.2,3.451-5.59,3.451h-23.511v-37.5h23.511c2.39,0,4.527,1.324,5.59,3.449l7.65,15.301
		L398.113,126.051z"/>
	<path display="inline" d="M237.75,92.002h-37.5c-3.451,0-6.251,2.799-6.251,6.249c0,3.449,2.8,6.25,6.251,6.25h37.5
		c3.449,0,6.25-2.801,6.25-6.25C244,94.801,241.2,92.002,237.75,92.002z"/>
	<path display="inline" d="M237.75,117.001h-37.5c-3.451,0-6.251,2.801-6.251,6.25c0,3.451,2.8,6.251,6.251,6.251h37.5
		c3.449,0,6.25-2.8,6.25-6.251C244,119.802,241.2,117.001,237.75,117.001z"/>
</g>
<g display="none">
	<g display="inline">
		<path d="M298.492,217.098h-2.52v-53.496c0-4.57-3.691-8.262-8.262-8.262h-1.23V94.813c0-2.168-0.879-4.278-2.402-5.859
			l-43.359-43.359c-5.215-5.215-14.121-1.523-14.121,5.859v103.945h-1.23c-4.57,0-8.262,3.691-8.262,8.262v53.496h-2.52
			c-4.57,0-8.262,3.691-8.262,8.262v90.466c0,13.77,11.191,24.962,24.961,24.962h50.508c13.77,0,24.961-11.192,24.961-24.962V225.36
			C306.754,220.79,303.063,217.098,298.492,217.098z M243.121,71.375l26.836,26.836v57.129h-26.836V71.375z M233.629,171.864h45.82
			v45.234h-45.82V171.864z M290.23,315.826c0,4.629-3.809,8.438-8.438,8.438h-50.508c-4.629,0-8.438-3.809-8.438-8.438v-82.205
			h67.383V315.826z"/>
	</g>
	<path display="inline" d="M423.414,142.215h-83.906c-4.57,0-8.262,3.691-8.262,8.262v165.994c0,13.418,10.898,24.316,24.316,24.316
		h51.797c13.418,0,24.316-10.898,24.316-24.316V150.477C431.676,145.906,427.984,142.215,423.414,142.215z M415.152,316.471
		c0,4.277-3.516,7.793-7.793,7.793h-51.797c-4.277,0-7.793-3.516-7.793-7.793V158.739h67.383V316.471z"/>
</g>
<path display="none" fill="none" stroke="#000000" stroke-width="17" stroke-linecap="round" stroke-linejoin="round" stroke-miterlimit="10" d="
	M352.466,200.862l-42.329,42.329c-11.64,11.638-30.688,11.638-42.328,0c-11.641-11.642-11.641-30.689,0-42.329l42.328-42.327
	c4.233,4.233,11.639,4.233,15.873,0c4.232-4.233,4.232-11.641,0-15.874l10.583-10.581l42.328,42.328l-10.583,10.583
	c-4.234-4.233-11.642-4.233-15.872,0C348.231,189.223,348.231,196.63,352.466,200.862z"/>
<path display="none" fill="none" stroke="#000000" stroke-width="17" stroke-linecap="round" stroke-linejoin="round" stroke-miterlimit="10" d="
	M337.519,173.481l-37.037,37.037L337.519,173.481z"/>
<path display="none" fill="none" stroke="#000000" stroke-width="17" stroke-linecap="round" stroke-linejoin="round" stroke-miterlimit="10" d="
	M342.633,183.82c4.234-14.813,0-31.745-11.639-43.386c-13.758-13.757-34.393-16.932-51.324-8.995l30.159,30.158
	c5.82,5.821,5.82,15.346,0,21.166c-5.821,5.818-15.344,5.818-21.164,0l-30.159-30.161c-7.938,16.934-5.292,37.567,8.995,51.324
	c11.64,11.64,28.571,15.872,43.386,11.64l41.269,41.271l31.748-31.746L342.633,183.82z"/>
<path display="none" fill="none" stroke="#000000" stroke-width="17" stroke-linecap="round" stroke-linejoin="round" stroke-miterlimit="10" d="
	M327.112,168.434l-41.27-41.271l-31.746,31.747l41.27,41.27c-4.233,14.813,0,31.745,11.642,43.386
	c13.756,13.755,34.39,16.931,51.322,8.995l-30.159-30.159c-5.82-5.82-5.82-15.345,0-21.165c5.82-5.818,15.343-5.818,21.165,0
	l30.157,30.159c7.936-16.932,5.294-37.566-8.995-51.323C358.857,167.905,341.926,164.201,327.112,168.434z"/>
<polygon display="none" fill="none" stroke="#000000" stroke-width="17" stroke-linecap="round" stroke-linejoin="round" stroke-miterlimit="10" points="
	324.291,197.026 313.709,186.974 313.709,186.974 "/>
<polygon display="none" fill="none" stroke="#000000" stroke-width="17" stroke-linecap="round" stroke-linejoin="round" stroke-miterlimit="10" points="
	260.534,261.047 249.953,250.464 340.43,159.989 345.72,144.116 366.885,122.953 388.047,144.116 366.885,165.28 351.009,170.571 
	"/>
<g>
	<g transform="translate(-241.000000, -645.000000)">
		<g transform="translate(241.000000, 645.000000)">
			<path stroke="#000000" stroke-width="5" stroke-miterlimit="10" d="M319,51.999c-77.195,0-140.001,62.806-140.001,140.001
				c0,77.194,62.806,139.999,140.001,139.999c77.194,0,139.998-62.805,139.998-139.999C458.998,114.805,396.194,51.999,319,51.999
				 M319,342c-82.711,0-150-67.289-150-150c0-82.71,67.289-150,150-150c82.71,0,150,67.29,150,150C469,274.711,401.71,342,319,342"
				/>
			<path stroke="#000000" stroke-width="5" stroke-miterlimit="10" d="M319,92c-55.14,0-100,44.859-100,100
				c0,55.141,44.859,100.001,100,100.001c55.141,0,100.001-44.86,100.001-100.001C419.001,136.86,374.141,92,319,92 M319,301.998
				c-60.655,0-110-49.342-110-109.998c0-60.654,49.346-110,110-110c60.656,0,109.998,49.346,109.998,110
				C428.998,252.656,379.656,301.998,319,301.998"/>
			<path stroke="#000000" stroke-width="5" stroke-miterlimit="10" d="M319,171.999c-11.03,0-20.001,8.971-20.001,20.001
				s8.971,20,20.001,20c11.03,0,19.998-8.971,19.998-20S330.03,171.999,319,171.999 M319,222c-16.546,0-30-13.456-30-30
				c0-16.546,13.455-30,30-30c16.543,0,29.999,13.454,29.999,30C348.999,208.545,335.543,222,319,222"/>
			<path stroke="#000000" stroke-width="5" stroke-miterlimit="10" d="M313.235,162h11.529l11.413-68.465
				c-11.573-2.041-22.787-2.041-34.352,0L313.235,162z M333.235,171.999h-28.469l-14.381-86.268l4.626-1.031
				c16.094-3.584,31.885-3.584,47.979,0l4.619,1.031L333.235,171.999z"/>
			<path stroke="#000000" stroke-width="5" stroke-miterlimit="10" d="M344.474,176.3c2.606,4.179,4.145,8.91,4.465,13.789
				l66.523-24.244c-3.179-11.731-8.526-22.891-15.675-32.706L344.474,176.3z M336.488,205.275l1.995-8.925
				c0.351-1.541,0.513-2.966,0.513-4.35c0-4.85-1.838-9.57-5.178-13.294l-3.581-3.985l71.247-55.59l3.089,3.824
				c10.531,13.036,18.034,28.585,21.698,44.956l0.963,4.284L336.488,205.275z"/>
			<path stroke="#000000" stroke-width="5" stroke-miterlimit="10" d="M327.795,220.682l42.709,57.04
				c9.82-5.939,18.72-13.726,26.088-22.82l-56.089-41.995C336.973,216.542,332.594,219.21,327.795,220.682L327.795,220.682z
				 M367.742,290.72l-58.958-78.743l10.501,0.021c6.519-0.09,12.574-3.356,16.258-8.766l2.946-4.325l72.113,53.994l-2.918,3.996
				c-9.641,13.149-22.136,24.129-36.14,31.755L367.742,290.72z"/>
			<path stroke="#000000" stroke-width="5" stroke-miterlimit="10" d="M240.113,253.332c6.981,8.945,15.551,16.752,25.125,22.885
				l42.374-56.598c-4.383-1.816-8.309-4.66-11.398-8.287L240.113,253.332z M267.858,289.401l-3.845-2.224
				c-13.755-7.965-25.846-19.023-34.97-31.984l-2.791-3.971l72.626-54.38l2.799,4.94c3.156,5.571,8.612,9.195,14.96,9.956l8.6,1.025
				L267.858,289.401z"/>
			<path stroke="#000000" stroke-width="5" stroke-miterlimit="10" d="M222.578,165.703l66.49,24.24
				c0.35-4.935,1.931-9.689,4.591-13.874l-55.301-43.151C231.175,142.744,225.788,153.929,222.578,165.703L222.578,165.703z
				 M301.373,205.069L210.8,172.054l0.965-4.291c3.699-16.431,11.244-32,21.824-45.029l3.09-3.807l71.295,55.625l-3.66,3.991
				c-3.427,3.735-5.316,8.513-5.316,13.454c0,1.375,0.156,2.755,0.47,4.221L301.373,205.069z"/>
			<path stroke="#000000" stroke-width="5" stroke-miterlimit="10" d="M318.654,211.978l0.633,0.021
				c6.516-0.096,12.576-3.355,16.253-8.771l2.092-3.063l0.851-3.811c0.351-1.546,0.513-2.97,0.513-4.355
				c0-4.845-1.838-9.571-5.178-13.291l-3.581-3.989l31.577-24.635c-6.371-6.51-14.016-11.43-22.518-14.48l-6.059,36.394h-28.475
				l-6.065-36.394c-8.404,3.02-15.99,7.875-22.325,14.294l31.601,24.656l-3.66,3.99c-3.426,3.739-5.316,8.514-5.316,13.455
				c0,1.375,0.156,2.754,0.47,4.219l0.575,2.681l1.635,2.884c3.156,5.571,8.612,9.195,14.96,9.956L318.654,211.978z
				 M259.053,189.643c-0.034,0.799-0.054,1.585-0.054,2.355c0,10.264,2.58,20.22,7.505,29.08l25.8-19.315L259.053,189.643z
				 M343.554,202.699l26.87,20.114c5.626-9.324,8.574-19.879,8.574-30.814c0-0.721-0.014-1.456-0.043-2.205L343.554,202.699z
				 M298.578,248.367c12.266,4.506,25.819,4.787,38.164,0.951l-19.438-25.96L298.578,248.367z M318.998,261.999
				c-10.554,0-20.784-2.362-30.419-7.026l-5.456-2.638l24.489-32.716c-4.383-1.816-8.309-4.66-11.398-8.287l-32.299,24.18
				l-2.937-4.351c-7.84-11.579-11.979-25.124-11.979-39.164c0-3.129,0.25-6.391,0.76-9.966l0.869-6.104l38.44,14.015
				c0.35-4.935,1.931-9.689,4.59-13.874l-31.751-24.776l3.311-3.964c9.491-11.385,22.017-19.346,36.221-23.027l5.285-1.363
				l6.514,39.06h11.526l6.51-39.06l5.289,1.363c14.306,3.711,26.896,11.741,36.4,23.242l3.28,3.964l-31.77,24.79
				c2.606,4.181,4.145,8.911,4.465,13.795l38.454-14.021l0.865,6.11c0.501,3.521,0.741,6.731,0.741,9.815
				c0,14.749-4.592,28.899-13.281,40.92l-2.979,4.125l-32.23-24.135c-3.536,3.635-7.91,6.3-12.716,7.775l24.762,33.063l-5.822,2.516
				C337.928,260.07,328.6,261.999,318.998,261.999L318.998,261.999z"/>
		</g>
	</g>
</g>
<path display="none" stroke="#000000" stroke-width="3" stroke-miterlimit="10" d="M450.25,154.5c0-10.356-8.395-18.75-18.75-18.75
	h-12.499L412.75,117c-9.375-28.125-37.5-28.125-37.5-28.125H356.5h-75h-18.75c0,0-28.125,0-37.5,28.125L219,135.75h-12.5
	c-10.356,0-18.75,8.394-18.75,18.75c0,8.553,5.725,15.767,13.55,18.019c-8.279,6.878-13.55,17.253-13.55,28.856v37.5
	c0,5.418,3.487,9.792,9.375,13.317v33.558c0,5.177,4.196,9.375,9.375,9.375h28.125c5.179,0,9.375-4.198,9.375-9.375v-21.72
	c27.009,2.967,57.282,2.97,75,2.97c17.718,0,47.994,0,75-2.97v21.72c0,5.177,4.198,9.375,9.375,9.375H431.5
	c5.177,0,9.375-4.198,9.375-9.375v-33.558c5.884-3.529,9.375-7.899,9.375-13.317v-37.5c0-11.604-5.271-21.979-13.551-28.856
	C444.523,170.267,450.25,163.053,450.25,154.5z M234.144,119.966c2.928-8.781,8.474-15.297,16.999-18.963
	c3.129-1.343,8.131-2.753,11.607-2.753h112.5c3.474,0,8.479,1.41,11.607,2.753c8.527,3.67,14.072,10.185,17,18.963l14.636,43.909
	h-5.743h-9.375h-168.75h-9.375h-5.744L234.144,119.966z M197.125,154.5c0-5.179,4.196-9.375,9.375-9.375h9.375l-6.25,18.75H206.5
	C201.321,163.875,197.125,159.678,197.125,154.5z M234.625,285.75H206.5v-29.254c7.818,2.801,17.546,4.854,28.125,6.357V285.75z
	 M431.5,285.75h-28.125v-22.896c10.575-1.503,20.307-3.557,28.125-6.357V285.75z M440.875,201.375v37.5
	c0,0.266-0.035,0.521-0.111,0.776c-1.457,4.726-14.42,8.802-18.503,9.925c-14.212,3.902-30.342,5.513-45.032,6.53
	c-19.395,1.344-38.798,1.519-58.229,1.519c-19.432,0-38.834-0.175-58.229-1.519c-14.69-1.018-30.818-2.628-45.035-6.53
	c-4.077-1.123-17.039-5.202-18.5-9.925c-0.077-0.254-0.112-0.51-0.112-0.776v-37.5c0-15.532,12.593-28.125,28.125-28.125h9.375
	h168.75h9.375C428.281,173.25,440.875,185.843,440.875,201.375z M431.5,163.875h-3.124l-6.251-18.75h9.375
	c5.177,0,9.375,4.196,9.375,9.375C440.875,159.678,436.677,163.875,431.5,163.875z M225.25,192c-10.356,0-18.75,8.394-18.75,18.75
	s8.394,18.75,18.75,18.75S244,221.106,244,210.75S235.606,192,225.25,192z M225.25,220.125c-5.179,0-9.375-4.197-9.375-9.375
	c0-5.179,4.196-9.375,9.375-9.375s9.375,4.196,9.375,9.375C234.625,215.928,230.429,220.125,225.25,220.125z M412.75,192
	c-10.357,0-18.75,8.394-18.75,18.75s8.393,18.75,18.75,18.75s18.75-8.394,18.75-18.75S423.107,192,412.75,192z M412.75,220.125
	c-5.177,0-9.375-4.197-9.375-9.375c0-5.179,4.198-9.375,9.375-9.375s9.375,4.196,9.375,9.375
	C422.125,215.928,417.927,220.125,412.75,220.125z M370.563,201.375H267.438c-2.587,0-4.688,2.101-4.688,4.688
	s2.101,4.688,4.688,4.688h103.125c2.589,0,4.688-2.101,4.688-4.688S373.151,201.375,370.563,201.375z M361.188,220.125h-84.375
	c-2.587,0-4.688,2.101-4.688,4.688s2.101,4.688,4.688,4.688h84.375c2.589,0,4.688-2.101,4.688-4.688
	S363.776,220.125,361.188,220.125z"/>
<g display="none">
	<g display="inline">
		<path stroke="#000000" stroke-width="5" stroke-miterlimit="10" d="M210.96,143.429l94.424,17.254
			c-9.993,41.498-34.331,72.788-57.666,72.788c-1.462,0-2.93-0.126-4.355-0.393c-11.686-2.135-21.482-12.911-27.595-30.343
			C209.862,185.898,208.207,165.117,210.96,143.429 M203.173,132.475c-10.045,54.933,7.201,104.107,38.504,109.832
			c2.006,0.364,4.021,0.537,6.041,0.537c29.47,0,59.434-38.234,68.831-89.651L203.173,132.475L203.173,132.475z"/>
	</g>
	
		<rect x="230.491" y="240.076" transform="matrix(-0.9838 -0.1795 0.1795 -0.9838 416.6768 593.2654)" display="inline" stroke="#000000" stroke-width="5" stroke-miterlimit="10" width="9.374" height="75.412"/>
	
		<rect x="205.992" y="310.191" transform="matrix(-0.9837 -0.1798 0.1798 -0.9837 396.5107 665.6851)" display="inline" stroke="#000000" stroke-width="5" stroke-miterlimit="10" width="44.854" height="9.37"/>
	<g display="inline">
		<g>
			<path stroke="#000000" stroke-width="5" stroke-miterlimit="10" d="M427.822,148.505c3.474,45.465-12.403,84.751-36.684,87.985
				c-1.055,0.14-2.125,0.209-3.192,0.209c-23.392,0-47.131-33.105-55.258-75.524L427.822,148.505 M436.133,137.939l-114.244,15.216
				c7.03,52.768,36.03,92.919,66.053,92.919c1.473,0,2.946-0.096,4.42-0.295C423.913,241.576,443.516,193.295,436.133,137.939
				L436.133,137.939z"/>
		</g>
		
			<rect x="359.419" y="276.863" transform="matrix(-0.132 -0.9913 0.9913 -0.132 170.4442 712.3601)" stroke="#000000" stroke-width="5" stroke-miterlimit="10" width="75.417" height="9.376"/>
		
			<rect x="397.406" y="296.479" transform="matrix(-0.1319 -0.9913 0.9913 -0.1319 139.0074 759.5547)" stroke="#000000" stroke-width="5" stroke-miterlimit="10" width="9.373" height="44.86"/>
	</g>
	
		<rect x="221.431" y="105.088" transform="matrix(-0.7078 -0.7064 0.7064 -0.7078 341.4282 360.779)" display="inline" stroke="#000000" stroke-width="5" stroke-miterlimit="10" width="47.797" height="9.374"/>
	
		<rect x="266.247" y="79.107" transform="matrix(-0.3383 -0.941 0.941 -0.3383 310.3472 385.8078)" display="inline" stroke="#000000" stroke-width="5" stroke-miterlimit="10" width="49.133" height="9.375"/>
	
		<rect x="344.813" y="57.581" transform="matrix(-0.9376 -0.3476 0.3476 -0.9376 648.6172 280.837)" display="inline" stroke="#000000" stroke-width="5" stroke-miterlimit="10" width="9.375" height="49.312"/>
	
		<rect x="388.282" y="82.272" transform="matrix(-0.7759 -0.6308 0.6308 -0.7759 631.5182 434.7215)" display="inline" stroke="#000000" stroke-width="5" stroke-miterlimit="10" width="9.378" height="45.846"/>
	
		<rect x="206.352" y="173.92" display="inline" stroke="#000000" stroke-width="5" stroke-miterlimit="10" width="98.479" height="9.375"/>
	
		<rect x="333.435" y="173.92" display="inline" stroke="#000000" stroke-width="5" stroke-miterlimit="10" width="98.475" height="9.375"/>
</g>
<g display="none">
	<g display="inline">
		<polygon stroke="#000000" stroke-width="10" stroke-miterlimit="10" points="223.301,195.301 223.301,188.699 315.701,188.699 
			315.701,96.3 322.303,96.3 322.303,188.699 414.699,188.699 414.699,195.301 322.303,195.301 322.303,287.697 315.701,287.697 
			315.701,195.301 		"/>
	</g>
</g>
<g display="none">
	<path display="inline" d="M319.012,175.999c-32.777,0-61.007,20.426-75.521,54.638c-11.479,27.065-10.612,55.161,2.107,68.315
		c6.766,7.002,14.579,10.548,23.23,10.548h0.002c12.448-0.003,23.81-7.28,33.836-13.704c6.006-3.847,12.808-8.207,16.347-8.207
		c3.612,0,10.576,4.337,16.717,8.162c10.129,6.309,21.608,13.459,33.941,13.459c8.557,0,16.218-3.458,22.765-10.281
		c13.017-13.558,13.98-42.091,2.351-69.381C380.493,196.018,352.167,175.999,319.012,175.999z M381.133,288.085
		c-3.577,3.726-7.221,5.46-11.463,5.46c-7.853,0-17.313-5.892-25.658-11.091c-8.696-5.415-16.91-10.53-25-10.53
		c-8.124,0-16.224,5.188-24.797,10.682c-8.215,5.263-17.527,11.229-25.389,11.229c-4.358,0-8.158-1.832-11.962-5.769
		c-7.077-7.318-8.618-28.512,1.049-51.308c4.489-10.578,22.151-45.089,61.096-45.089c38.445,0,55.719,30.789,61.362,44.026
		C390.199,258.747,388.477,280.434,381.133,288.085z"/>
	<path display="inline" d="M286.276,163.35c1.551,0,3.105-0.156,4.625-0.467c17.169-3.501,27.074-25.504,22.551-50.086
		c-4.086-22.19-18.563-38.296-34.424-38.296c-1.548,0-3.102,0.157-4.622,0.467c-17.168,3.502-27.076,25.502-22.551,50.086
		C255.939,147.244,270.416,163.35,286.276,163.35z M277.537,90.321c0.491-0.099,0.993-0.151,1.491-0.151
		c6.889,0,16.117,9.737,19.015,25.465c3.113,16.926-2.914,30.398-10.275,31.899c-0.491,0.099-0.993,0.152-1.492,0.152
		c-6.891,0-16.119-9.738-19.012-25.465C264.151,105.289,270.178,91.82,277.537,90.321z"/>
	<path display="inline" d="M248.163,154.349c-7.837-11.382-19.595-18.451-30.688-18.451c-5.343,0-10.317,1.638-14.383,4.737
		c-12.761,9.732-13.414,30.933-1.486,48.267c7.836,11.38,19.595,18.451,30.69,18.451c5.343,0,10.314-1.637,14.38-4.734
		C259.436,192.884,260.089,171.686,248.163,154.349z M237.177,190.157c-1.332,1.013-2.974,1.528-4.88,1.528
		c-5.925,0-12.905-4.58-17.785-11.67c-7.552-10.97-7.071-22.995-1.922-26.922c1.332-1.016,2.974-1.528,4.883-1.528
		c5.922,0,12.905,4.58,17.782,11.667C242.807,174.205,242.327,186.228,237.177,190.157z"/>
	<path display="inline" d="M347.101,162.885c1.517,0.311,3.073,0.468,4.625,0.468c0,0,0,0,0.002,0
		c15.853,0,30.327-16.104,34.42-38.3c4.517-24.584-5.388-46.584-22.559-50.083c-1.518-0.311-3.072-0.468-4.62-0.468
		c-15.86,0-30.334,16.106-34.419,38.294C320.022,137.381,329.926,159.381,347.101,162.885z M339.959,115.635
		c2.894-15.728,12.122-25.465,19.01-25.465c0.498,0,1.003,0.052,1.489,0.151c7.357,1.501,13.39,14.97,10.279,31.896
		c-2.898,15.73-12.126,25.468-19.012,25.468c-0.5,0-1.003-0.053-1.491-0.152C342.868,146.033,336.842,132.563,339.959,115.635z"/>
	<path display="inline" d="M434.904,140.632c-4.063-3.1-9.035-4.734-14.378-4.734c-11.092,0-22.851,7.072-30.688,18.451
		c-11.931,17.333-11.281,38.535,1.483,48.266c4.063,3.101,9.035,4.734,14.378,4.734c11.093,0,22.855-7.071,30.695-18.454
		C448.321,171.565,447.668,150.364,434.904,140.632z M423.49,180.015c-4.883,7.09-11.865,11.67-17.79,11.67
		c-1.906,0-3.549-0.515-4.878-1.528c-5.154-3.93-5.63-15.952,1.919-26.925c4.881-7.089,11.863-11.669,17.785-11.669
		c1.906,0,3.549,0.515,4.878,1.525C430.559,157.021,431.039,169.045,423.49,180.015z"/>
</g>
<g display="none">
	
		<path display="inline" fill="none" stroke="#000000" stroke-width="17" stroke-linecap="round" stroke-linejoin="round" stroke-miterlimit="10" d="
		M291.101,260.477l-40.641,40.642c-11.176,11.176-29.465,11.176-40.642,0c-11.177-11.177-11.177-29.466,0-40.642l40.642-40.642
		c4.064,4.064,11.176,4.064,15.24,0c4.064-4.064,4.064-11.176,0-15.24l10.161-10.161l40.641,40.642l-10.16,10.161
		c-4.064-4.064-11.176-4.064-15.241,0C287.037,249.3,287.037,256.412,291.101,260.477z"/>
	
		<path display="inline" fill="none" stroke="#000000" stroke-width="17" stroke-linecap="round" stroke-linejoin="round" stroke-miterlimit="10" d="
		M265.7,245.236l-35.561,35.561L265.7,245.236z"/>
	
		<path display="inline" fill="none" stroke="#000000" stroke-width="17" stroke-linecap="round" stroke-linejoin="round" stroke-miterlimit="10" d="
		M292.117,128.899c4.064-14.224,0-30.481-11.176-41.658c-13.208-13.208-33.021-16.256-49.278-8.636l28.957,28.958
		c5.588,5.588,5.588,14.732,0,20.321c-5.588,5.588-14.732,5.588-20.321,0l-28.957-28.958c-7.62,16.257-5.08,36.07,8.636,49.278
		c11.177,11.177,27.433,15.241,41.658,11.177l39.625,39.625l30.48-30.481L292.117,128.899z"/>
	
		<path display="inline" fill="none" stroke="#000000" stroke-width="17" stroke-linecap="round" stroke-linejoin="round" stroke-miterlimit="10" d="
		M382.037,218.819l-39.626-39.625l-30.481,30.481l39.626,39.625c-4.064,14.225,0,30.481,11.176,41.657
		c13.209,13.209,33.021,16.257,49.278,8.637l-28.957-28.957c-5.588-5.588-5.588-14.732,0-20.32c5.589-5.588,14.732-5.588,20.32,0
		l28.957,28.957c7.62-16.257,5.081-36.069-8.637-49.278C412.518,218.312,396.262,214.755,382.037,218.819z"/>
	
		<polygon display="inline" fill="none" stroke="#000000" stroke-width="17" stroke-linecap="round" stroke-linejoin="round" stroke-miterlimit="10" points="
		301.77,219.327 291.609,209.675 291.609,209.675 	"/>
	
		<polygon display="inline" fill="none" stroke="#000000" stroke-width="17" stroke-linecap="round" stroke-linejoin="round" stroke-miterlimit="10" points="
		301.262,219.835 291.101,209.675 377.973,122.803 383.053,107.563 403.373,87.242 423.693,107.563 403.373,127.884 
		388.133,132.964 	"/>
</g>
</svg>
